<?xml version="1.0" encoding="utf-8"?>
<!-- Generator: Adobe Illustrator 21.1.0, SVG Export Plug-In . SVG Version: 6.00 Build 0)  -->
<svg version="1.1" id="Layer_1" xmlns="http://www.w3.org/2000/svg" xmlns:xlink="http://www.w3.org/1999/xlink" x="0px" y="0px"
	 viewBox="0 0 385.7 592.1" style="enable-background:new 0 0 385.7 592.1;" xml:space="preserve">
<style type="text/css">
	.st0{fill:#E89980;}
</style>
<g>
	<path class="st0" d="M87.1,260.3c3,0,5.3-2.4,5.3-5.3v-84.1H293v147.3c0,3,2.4,5.3,5.3,5.3c3,0,5.3-2.4,5.3-5.3
		c0-55.8,0-104.7,0-177.4c0-6.7-2.6-12.9-7.3-17.5c-4.8-4.8-11-7.3-17.7-7.3H106.7c-6.7,0-12.9,2.6-17.7,7.3
		c-4.8,4.8-7.3,11-7.3,17.5v114.2C81.8,258,84.1,260.3,87.1,260.3z M185.7,145c0-3.8,3.1-6.9,6.9-6.9s6.9,3.1,6.9,6.9
		s-3.1,6.9-6.9,6.9S185.7,148.8,185.7,145z M96.6,130.7c2.7-2.7,6.2-4.2,10-4.2h172.1c3.8,0,7.3,1.5,10,4.2c2.7,2.7,4.2,6.2,4.2,10
		v19.4h-91.7c1.4-0.8,2.7-1.8,3.8-2.9c3.3-3.3,5.2-7.7,5.2-12.5c0-4.8-1.8-9.1-5.2-12.5c-3.3-3.3-7.7-5.2-12.5-5.2
		c-4.8,0-9.1,1.9-12.5,5.2c-3.4,3.3-5.2,7.7-5.2,12.5c0,4.8,1.8,9.1,5.2,12.5c1.1,1.1,2.4,2,3.8,2.9H92.4v-19.4
		C92.4,137.1,93.9,133.4,96.6,130.7z"/>
	<path class="st0" d="M298.3,343.2c-3,0-5.3,2.4-5.3,5.3l0,0c0,3,2.4,5.3,5.3,5.3c3,0,5.3-2.4,5.3-5.3l0,0
		C303.6,345.7,301.3,343.2,298.3,343.2z"/>
	<path class="st0" d="M87.1,290.7c3,0,5.3-2.4,5.3-5.3s-2.4-5.3-5.3-5.3c-3,0-5.3,2.4-5.3,5.3S84.1,290.7,87.1,290.7z"/>
	<path class="st0" d="M143.2,159.2c3.8,0,7.3-1.5,10-4.2c2.7-2.7,4.2-6.2,4.2-10s-1.5-7.5-4.2-10c-2.7-2.7-6.2-4.2-10-4.2
		c-3.8,0-7.3,1.5-10,4.2s-4.2,6.2-4.2,10s1.5,7.3,4.2,10S139.4,159.2,143.2,159.2z M143.2,141.3c2,0,3.7,1.6,3.7,3.7
		s-1.6,3.7-3.7,3.7c-2,0-3.7-1.6-3.7-3.7C139.5,142.9,141.2,141.3,143.2,141.3z"/>
	<path class="st0" d="M228.6,404.8h-72c-1.4,0-2.7,0.5-3.8,1.5c-1.1,1-1.5,2.3-1.5,3.8v0.1v7.9c0,3.5,1.4,6.9,3.9,9.4
		c2.4,2.4,5.8,3.9,9.4,3.9h55.9c3.5,0,6.9-1.4,9.4-3.9c2.4-2.4,3.9-5.8,3.9-9.4v-8c0-1.4-0.5-2.7-1.5-3.8
		C231.5,405.3,230.1,404.8,228.6,404.8z M223.3,418.1c0,0.7-0.3,1.4-0.8,1.8c-0.5,0.5-1.2,0.8-1.9,0.8h-55.9c-0.7,0-1.4-0.3-1.9-0.8
		s-0.8-1.1-0.8-1.8v-2.6h61.2v2.6H223.3z"/>
	<path class="st0" d="M217.1,223.2c-7.7-3.3-15.9-4.9-24.3-4.9c-8.4,0-16.7,1.6-24.3,4.9c-7.5,3.1-14.1,7.6-19.8,13.4
		c-5.7,5.7-10.2,12.5-13.4,19.8c-3.3,7.7-4.9,15.9-4.9,24.3c0,8.4,1.6,16.6,4.9,24.3c3.1,7.5,7.6,14.1,13.4,19.8
		c5.7,5.7,12.5,10.2,19.8,13.4c7.7,3.3,15.9,4.9,24.3,4.9c8.4,0,16.6-1.6,24.3-4.9c7.5-3.1,14.1-7.6,19.8-13.4
		c5.7-5.7,10.2-12.5,13.4-19.8c3.3-7.7,4.9-15.9,4.9-24.3s-1.6-16.6-4.9-24.3c-3.1-7.5-7.6-14.1-13.4-19.8
		C231.2,230.8,224.6,226.3,217.1,223.2z M229.4,317.4c-9.8,9.8-22.8,15.2-36.7,15.2s-26.9-5.4-36.7-15.2
		c-9.8-9.8-15.2-22.8-15.2-36.7s5.4-26.9,15.2-36.7c9.8-9.8,22.8-15.2,36.7-15.2s26.9,5.4,36.7,15.2c9.8,9.8,15.2,22.8,15.2,36.7
		C244.7,294.6,239.2,307.7,229.4,317.4z"/>
	<path class="st0" d="M223.6,267.7h-17.9v-17.9c0-1.4-0.5-2.7-1.5-3.8c-1-1-2.3-1.6-3.8-1.6H185c-1.4,0-2.7,0.5-3.8,1.6
		c-1,1-1.5,2.3-1.5,3.8v17.9h-17.9c-1.4,0-2.7,0.5-3.8,1.5c-1,1-1.5,2.3-1.5,3.8v15.3c0,1.4,0.5,2.7,1.5,3.8c1,1,2.3,1.5,3.8,1.5
		h17.9v17.9c0,1.4,0.5,2.7,1.5,3.8c1,1,2.3,1.5,3.8,1.5h15.3c1.4,0,2.7-0.5,3.8-1.5c1-1,1.5-2.3,1.5-3.8v-17.9h17.9
		c1.4,0,2.7-0.5,3.8-1.5c1-1,1.5-2.3,1.5-3.8V273c0-1.4-0.5-2.7-1.5-3.8C226.5,268.3,225.1,267.7,223.6,267.7z"/>
	<path class="st0" d="M334,434.9h-34.9c2.9-4.2,4.5-9.1,4.5-14.3v-41.6V379l0,0c0-3-2.4-5.3-5.3-5.3c-3,0-5.3,2.4-5.3,5.3l0,0v11.7
		H92.4v-74.8c0-3-2.4-5.3-5.3-5.3s-5.3,2.4-5.3,5.3v104.8c0,5.2,1.6,10,4.5,14.3H51.4c-3,0-5.3,2.4-5.3,5.3c0,3,2.4,5.3,5.3,5.3
		h55.4h172.1h55.4c3,0,5.3-2.4,5.3-5.3C339.4,437.3,337,434.9,334,434.9z M106.7,434.9c-3.8,0-7.3-1.5-10-4.2
		c-2.7-2.7-4.2-6.2-4.2-10v-19.4H293v19.4c0,3.8-1.5,7.3-4.2,10c-2.7,2.7-6.2,4.2-10,4.2H106.7z"/>
	<path class="st0" d="M252.7,465.5H132.8c-3,0-5.3,2.4-5.3,5.3c0,3,2.4,5.3,5.3,5.3h119.9c3,0,5.3-2.4,5.3-5.3
		C258,467.9,255.5,465.5,252.7,465.5z"/>
</g>
</svg>
