<svg xmlns="http://www.w3.org/2000/svg" xmlns:xlink="http://www.w3.org/1999/xlink" version="1.1" x="0px" y="0px" viewBox="0 0 144 180" enable-background="new 0 0 144 144" xml:space="preserve"><g><path fill="#000000" d="M109.492,80.516c-0.783-1.603-1.594-3.25-2.698-4.631c-0.979-1.219-7.81-9.38-10.771-12.687   c-2.404-2.684-9.76-2.294-9.76-5.988c-0.062-1.064-0.035-4.842,0.172-5.894c0.104-0.531,0.295-1.044,0.549-1.521   c0.113-0.214,0.117-0.437,0.232-0.638c0.111-0.199,0.303-0.366,0.484-0.503c0.335-0.258,0.76-0.426,1.146-0.584   c0.473-0.193,0.965-0.339,1.428-0.548c0.988-0.447,1.764-1.172,2.477-1.97c1.012-1.135,1.529-2.503,1.848-3.963   c0.283-1.306,0.45-2.626,0.371-3.959c-0.043-0.72-0.189-1.432-0.332-2.139c-0.193-0.974-0.496-1.923-0.869-2.841   c-0.295-0.733-0.615-1.456-0.979-2.159c-0.527-1.027-1.393-1.747-2.343-2.367c-1.539-1-3.265-1.429-5.07-1.586   c-1.165-0.099-2.331-0.077-3.497-0.005c-1.259,0.078-2.511,0.207-3.746,0.449c-1.441,0.282-3.111,0.587-4.414,1.298   c-0.438,0.238-0.963,0.401-1.278,0.807c-0.146,0.189-0.245,0.413-0.318,0.64c-0.011,0.031-0.022,0.106-0.036,0.194   c-0.034,0.209-0.074,0.502-0.124,0.531c-0.534,0.313-1.039,0.81-1.52,1.206c-1.259,1.042-1.891,2.385-1.964,4.017   c-0.029,0.683-0.132,1.361-0.2,2.043c-0.054,0.557,0.076,1.086,0.248,1.608c0.136,0.418,0.274,0.835,0.396,1.258   c0.14,0.5-0.078,0.823-0.588,0.892c-0.153,0.019-0.314,0.022-0.471,0.016c-0.152-0.005-0.301-0.03-0.474-0.049   c0.273,0.614,0.786,0.716,1.404,0.69c-0.286,0.502-0.533,0.971-0.82,1.422c-0.255,0.402-0.554,0.776-0.826,1.166   c-0.17,0.242-0.315,0.495-0.263,0.804c0.021,0.126,0.108,0.228,0.176,0.334c0.038,0.06,0.07,0.113,0.124,0.162   c0.099,0.082,0.215,0.146,0.305,0.237c0.033,0.038,0.074,0.064,0.104,0.107c0.031,0.043,0.062,0.089,0.1,0.125   c0.062,0.062,0.097,0.131,0.147,0.199c0.042,0.061,0.087,0.113,0.102,0.191c0.028,0.147-0.065,0.274-0.18,0.354   c-0.03,0.021-0.059,0.045-0.092,0.055c-0.442,0.127-0.463,0.538-0.334,0.895c0.127,0.359,0.34,0.657,0.713,0.835   c-0.041,0.078-0.086,0.144-0.123,0.212c-0.197,0.379-0.296,0.779-0.269,1.204c0.012,0.203,0.129,0.32,0.326,0.359   c0.04,0.008,0.079,0.023,0.118,0.024c0.49,0.03,0.728,0.35,0.846,0.773c0.083,0.292,0.112,0.599,0.171,0.898   c0.052,0.259,0.083,0.525,0.166,0.775c0.233,0.686,0.778,0.951,1.454,0.998c0.579,0.041,1.15-0.042,1.71-0.189   c0.964-0.253,1.921-0.536,2.889-0.775c1.139-0.281,1.235,0.345,1.684,1.41c0.293,0.699,0.399,1.442,0.468,2.191   c0.083,0.947,0.165,1.893,0.249,2.839c-0.229,1.53-1.42,1.822-2.682,2.103c-2.85,0.632-2.645,0.606-3.667,1.248   c-1.442,0.906-1.146,2.094-2.818,3.223c-2.742,1.851-6.649,4.593-4.607,8.756c0.337,0.744,0.367,1.49,0.173,2.214   c-0.185,0.674-3.457,3.767-3.955,4.395c-1.501,1.892-3.323,3.265-4.957,4.992c-2.988,3.151-4.318,7.337-4.082,11.646v0.012   c-0.079,3.111,0.822,6.145,2.586,8.605c1.03,1.814,2.358,3.529,3.978,5.065c0.006,0.002,0.008,0.007,0.011,0.008   c0.672,0.638,1.22,1.396,1.58,2.246c0.336,0.783,0.653,1.58,1.013,2.362h3.734v0.009h13.964c4.243,0,8.488,0,12.737,0.008   c0.075,0,0.14-0.003,0.198-0.017c0.209-0.032,0.351-0.137,0.482-0.364c0.067-0.117,0.135-0.231,0.2-0.353   c1.032-1.865,1.798-3.828,2.075-5.955c0.343-2.604-0.006-5.141-0.909-7.582c-0.81-2.188-1.745-4.332-2.601-6.508   c-0.502-1.285-0.95-2.592-0.989-3.979c0.067-0.029,0.14-0.058,0.205-0.084c6.177-2.608,12.364-5.206,18.545-7.832   C109.499,83.301,110.295,82.16,109.492,80.516z M80.792,110.896c-5.271,5.562-14.742,5.143-21.152-0.936   c-6.411-6.077-7.337-15.513-2.067-21.07c5.27-5.562,14.741-5.142,21.151,0.938C85.135,95.906,86.061,105.34,80.792,110.896z    M97.559,80.936c-2.386,1.69-4.75,3.416-7.223,4.965c0.809-2.477,1.664-4.938,2.454-7.422c0.344-1.069,0.644-2.151,0.874-3.248   c1.423,1.266,2.798,2.492,4.159,3.731C98.624,79.689,98.244,80.439,97.559,80.936z"/><path fill="#000000" d="M72.422,92.607c-1.968,0-3.607,1.354-4.074,3.177c-0.467-1.823-2.105-3.177-4.073-3.177   c-2.332,0-4.221,1.891-4.221,4.222c0,0.294,0.031,0.581,0.089,0.858c0.869,4.68,8.205,11.459,8.205,11.459   s7.335-6.779,8.207-11.459c0.057-0.277,0.088-0.564,0.088-0.858C76.643,94.498,74.753,92.607,72.422,92.607z"/></g></svg>