<svg xmlns="http://www.w3.org/2000/svg" xmlns:xlink="http://www.w3.org/1999/xlink" version="1.1" x="0px" y="0px" viewBox="0 0 512 640" style="enable-background:new 0 0 512 512;" xml:space="preserve"><g><g><g><path d="M375,496H137c-10.95,0-21.25-4.271-28.99-12.01C100.27,476.25,96,465.95,96,455V241.71c0-5.51,4.49-10,10-10     c5.51,0,10,4.49,10,10V455c0.02,11.56,9.44,20.979,21,21h238c11.56-0.021,20.979-9.44,21-21V236.86c0-5.52,4.49-10,10-10     s10,4.48,10,10V455c0,10.95-4.271,21.25-12.01,28.99C396.25,491.729,385.95,496,375,496z M106,201.71c-5.51,0-10-4.48-10-10     c0-5.51,4.49-10,10-10c5.51,0,10,4.49,10,10C116,197.23,111.51,201.71,106,201.71z M406,196.86c-5.51,0-10-4.49-10-10     c0-5.52,4.49-10,10-10s10,4.48,10,10C416,192.37,411.51,196.86,406,196.86z M106,151.71c-5.51,0-10-4.48-10-10V57     c0-10.95,4.27-21.25,12.01-28.99C115.75,20.27,126.05,16,137,16h238c10.95,0,21.25,4.27,28.99,12.01     C411.729,35.75,416,46.05,416,57v79.86c0,5.51-4.49,10-10,10s-10-4.49-10-10V57c-0.021-11.56-9.44-20.98-21-21H137     c-11.56,0.02-20.98,9.44-21,21v84.7c0,0.01,0,0.01,0,0.01C116,147.23,111.51,151.71,106,151.71z"/></g><g><path d="M368.5,415.689h-225c-2.63,0-5.21-1.069-7.07-2.93c-1.86-1.86-2.93-4.44-2.93-7.07v-275c0-5.52,4.49-10,10-10     c5.51,0,10,4.48,10,10v265h205V106.31H209.14c-0.01,0-0.01,0-0.02,0c-5.51,0-10-4.48-10-10c0-5.51,4.49-10,10-10H368.5     c2.63,0,5.21,1.07,7.069,2.93c1.86,1.86,2.931,4.44,2.931,7.07v309.379c0,2.63-1.07,5.21-2.931,7.07     C373.71,414.62,371.13,415.689,368.5,415.689z M159.12,106.31c-5.51,0-10-4.48-10-10c0-5.51,4.49-10,10-10c5.52,0,10,4.49,10,10     C169.12,101.83,164.64,106.31,159.12,106.31z"/></g><g><path d="M278.5,66H226c-5.51,0-10-4.49-10-10c0-5.51,4.49-10,10-10h52.5c5.51,0,10,4.49,10,10C288.5,61.51,284.01,66,278.5,66z"/></g><circle cx="256" cy="443.188" r="18.75"/><rect x="166" y="116" width="20" height="20"/><rect x="196" y="116" width="20" height="20"/><rect x="226" y="116" width="20" height="20"/><g><path d="M326,336H186c-5.51,0-10-4.49-10-10s4.49-10,10-10h140c5.51,0,10,4.49,10,10S331.51,336,326,336z"/></g><g><path d="M326,376H186c-5.51,0-10-4.49-10-10s4.49-10,10-10h140c5.51,0,10,4.49,10,10S331.51,376,326,376z"/></g><g><path d="M256,296c-9.45,0-18.62-1.851-27.25-5.5c-8.33-3.53-15.82-8.58-22.25-15c-6.42-6.431-11.47-13.92-15-22.25     c-3.65-8.63-5.5-17.8-5.5-27.25c0-9.45,1.85-18.62,5.5-27.25c3.53-8.33,8.58-15.82,15-22.25c6.43-6.42,13.92-11.47,22.25-15     c8.63-3.65,17.8-5.5,27.25-5.5s18.62,1.85,27.25,5.5c8.33,3.53,15.819,8.58,22.25,15c6.42,6.43,11.47,13.92,15,22.25     c3.649,8.63,5.5,17.8,5.5,27.25c0,9.45-1.851,18.62-5.5,27.25c-3.53,8.33-8.58,15.819-15,22.25c-6.431,6.42-13.92,11.47-22.25,15     C274.62,294.149,265.45,296,256,296z M256,176c-13.35,0-25.9,5.2-35.35,14.64C211.21,200.1,206,212.66,206,226     c0,13.34,5.21,25.9,14.65,35.35C230.1,270.79,242.66,276,256,276c13.34,0,25.899-5.21,35.35-14.65     C300.79,251.9,306,239.34,306,226c0-13.34-5.21-25.9-14.65-35.36C281.899,181.2,269.34,176,256,176L256,176z"/></g><g><path d="M276,236h-40c-5.51,0-10-4.49-10-10c0-5.51,4.49-10,10-10h40c5.51,0,10,4.49,10,10C286,231.51,281.51,236,276,236z"/></g><g><path d="M256,256c-5.51,0-10-4.49-10-10v-40c0-5.51,4.49-10,10-10c5.51,0,10,4.49,10,10v40C266,251.51,261.51,256,256,256z"/></g></g></g><text x="0" y="527" fill="#000000" font-size="5px" font-weight="bold" font-family="'Helvetica Neue', Helvetica, Arial-Unicode, Arial, Sans-serif">Created by Flatart</text><text x="0" y="532" fill="#000000" font-size="5px" font-weight="bold" font-family="'Helvetica Neue', Helvetica, Arial-Unicode, Arial, Sans-serif">from the Noun Project</text></svg>