<svg xmlns="http://www.w3.org/2000/svg" xmlns:xlink="http://www.w3.org/1999/xlink" version="1.1" x="0px" y="0px" viewBox="63.15 19.32 385.7 592.0875" style="enable-background:new 63.15 19.32 385.7 473.67;" xml:space="preserve"><g><path d="M117.15,209.2c3.86,0,7-3.14,7-7.01V91.57h263.7v193.7c0,3.86,3.141,7,7,7c3.86,0,7-3.14,7-7c0-73.43,0-137.59,0-233.209   c-0.01-8.73-3.43-16.94-9.62-23.12c-6.189-6.19-14.41-9.6-23.149-9.62H142.92c-8.74,0.02-16.96,3.43-23.15,9.62   c-6.19,6.18-9.61,14.39-9.62,23.12V202.2C110.15,206.06,113.29,209.2,117.15,209.2z M246.84,57.45c0-5.05,4.12-9.16,9.17-9.16   c5.03,0.01,9.14,4.12,9.15,9.16c-0.011,5.02-4.12,9.11-9.15,9.12C250.96,66.56,246.84,62.47,246.84,57.45z M129.67,38.84   c3.57-3.55,8.27-5.51,13.25-5.52h226.16c4.979,0.01,9.689,1.97,13.26,5.52c3.55,3.56,5.51,8.26,5.51,13.22v25.51H267.383   c1.801-1.02,3.484-2.27,4.987-3.77c4.37-4.36,6.779-10.17,6.79-16.35c0-6.19-2.41-12.01-6.79-16.39   c-4.37-4.36-10.181-6.77-16.36-6.77c-6.19,0.01-12.01,2.42-16.38,6.78c-4.38,4.37-6.79,10.19-6.79,16.38   c0,6.18,2.41,11.99,6.79,16.35c1.505,1.501,3.187,2.751,4.987,3.77H124.15V52.06C124.15,47.1,126.11,42.41,129.67,38.84z"/><path d="M394.85,318.229c-3.85,0-6.99,3.141-7,6.99v0.01c0,3.86,3.141,7,7,7c3.86,0,7-3.14,7-7v-0.01   C401.84,321.37,398.71,318.229,394.85,318.229z"/><path d="M117.15,249.15c3.86,0,7-3.14,7-7s-3.14-7-7-7s-7,3.14-7,7S113.29,249.15,117.15,249.15z"/><path d="M190.95,76.19c5.02,0,9.73-1.95,13.27-5.49s5.5-8.24,5.5-13.25c-0.01-5.02-1.96-9.74-5.5-13.28   c-3.54-3.55-8.26-5.51-13.27-5.51c-5.02,0.01-9.73,1.96-13.28,5.51c-3.54,3.54-5.49,8.26-5.5,13.28c0.01,5.01,1.97,9.72,5.51,13.25   C181.22,74.24,185.93,76.19,190.95,76.19z M190.95,52.66c2.63,0.01,4.77,2.15,4.77,4.79c0,2.61-2.14,4.74-4.77,4.74   s-4.77-2.13-4.78-4.74C186.18,54.82,188.32,52.67,190.95,52.66z"/><path d="M303.29,399.09h-94.58c-1.84,0-3.65,0.75-4.95,2.05c-1.3,1.3-2.05,3.11-2.05,4.95c0,0.06,0,0.11,0,0.17v10.31   c0.02,4.66,1.84,9.04,5.13,12.32c3.3,3.28,7.68,5.101,12.35,5.11h73.61c4.68-0.01,9.06-1.83,12.35-5.11s5.12-7.66,5.141-12.32   V406.09c0-1.84-0.75-3.65-2.05-4.95C306.939,399.84,305.13,399.09,303.29,399.09z M296.29,416.569c0,0.9-0.36,1.73-1.03,2.4   c-0.68,0.68-1.53,1.03-2.46,1.03h-73.61c-0.92,0-1.77-0.351-2.46-1.03c-0.66-0.67-1.02-1.5-1.02-2.4v-3.479h80.58V416.569z"/><path d="M288.02,160.34c-10.14-4.28-20.91-6.46-32.01-6.46c-11.11,0-21.88,2.17-32.02,6.46c-9.8,4.14-18.6,10.07-26.15,17.61   c-7.55,7.55-13.48,16.34-17.63,26.13c-4.29,10.13-6.46,20.89-6.46,31.99s2.17,21.86,6.46,31.99c4.14,9.79,10.08,18.58,17.63,26.13   c7.55,7.54,16.35,13.471,26.15,17.61c10.14,4.29,20.91,6.46,32.02,6.46c11.1,0,21.87-2.17,32.01-6.46   c9.79-4.14,18.58-10.07,26.141-17.61c7.55-7.55,13.479-16.34,17.62-26.13c4.289-10.13,6.47-20.89,6.47-31.99   s-2.181-21.86-6.47-31.99c-4.141-9.79-10.07-18.58-17.62-26.13C306.6,170.41,297.81,164.48,288.02,160.34z M304.26,284.29   c-12.9,12.87-30.04,19.97-48.25,19.97c-18.23,0-35.37-7.1-48.27-19.97c-12.89-12.891-19.99-30.02-19.99-48.22   s7.1-35.33,19.99-48.21c12.9-12.88,30.04-19.98,48.27-19.98c18.22,0,35.35,7.1,48.25,19.98c12.89,12.89,19.99,30.01,19.99,48.21   S317.149,271.399,304.26,284.29z"/><path d="M296.66,218.97H273.1v-23.53c0-1.84-0.75-3.64-2.05-4.94c-1.31-1.31-3.11-2.06-4.95-2.06h-20.2   c-1.84,0-3.65,0.75-4.95,2.06c-1.3,1.3-2.05,3.1-2.05,4.94v23.53h-23.57c-1.84,0-3.64,0.75-4.95,2.05c-1.3,1.3-2.05,3.11-2.05,4.95   v20.2c0,1.84,0.75,3.65,2.05,4.95c1.31,1.3,3.11,2.05,4.95,2.05h23.57v23.53c0,1.84,0.75,3.64,2.05,4.949   c1.3,1.301,3.11,2.04,4.95,2.04h20.2c1.87,0,3.62-0.72,4.95-2.04c1.32-1.33,2.05-3.08,2.05-4.949v-23.53h23.561   c1.85,0,3.649-0.75,4.949-2.05c1.301-1.3,2.051-3.11,2.051-4.95v-20.2c0-1.84-0.75-3.64-2.051-4.95   C300.31,219.72,298.51,218.97,296.66,218.97z M289.66,239.17H266.1c-1.85,0-3.649,0.75-4.95,2.05c-1.31,1.3-2.05,3.11-2.05,4.95   v23.53h-6.2v-23.53c0-1.84-0.75-3.64-2.05-4.95c-1.3-1.3-3.11-2.05-4.95-2.05h-23.57v-6.2h23.57c1.84,0,3.65-0.75,4.95-2.05   c1.3-1.3,2.05-3.11,2.05-4.95v-23.53h6.2v23.53c0,1.84,0.74,3.65,2.05,4.95c1.301,1.3,3.101,2.05,4.95,2.05h23.561V239.17z"/><path d="M441.85,438.78h-45.927c3.837-5.456,5.919-11.938,5.927-18.74v-54.67c0-0.061,0-0.11,0-0.17c0-0.011,0-0.011,0-0.011   c-0.01-3.859-3.14-6.989-7-6.989c-3.85,0-6.99,3.13-7,6.989c0,0,0,0,0,0.011v15.369h-263.7V282.1c0-3.859-3.14-7-7-7s-7,3.141-7,7   v137.94c0.008,6.802,2.089,13.285,5.927,18.74H70.15c-3.86,0-7,3.14-7,7c0,3.859,3.14,7,7,7h72.77h226.16h72.77c3.86,0,7-3.141,7-7   C448.85,441.92,445.71,438.78,441.85,438.78z M142.92,438.78c-4.98,0-9.69-1.961-13.26-5.511c-3.55-3.56-5.51-8.25-5.51-13.229   v-25.471h263.7v25.471c0,4.979-1.96,9.68-5.51,13.229c-3.57,3.55-8.28,5.511-13.26,5.511H142.92z"/><path d="M334.81,478.99H177.19c-3.86,0-7,3.14-7,7c0,3.859,3.14,7,7,7h157.62c3.86,0,7-3.141,7-7   C341.81,482.13,338.67,478.99,334.81,478.99z"/></g></svg>