<?xml version="1.0" encoding="utf-8"?>
<!-- Generator: Adobe Illustrator 21.1.0, SVG Export Plug-In . SVG Version: 6.00 Build 0)  -->
<svg version="1.1" id="Layer_1" xmlns="http://www.w3.org/2000/svg" xmlns:xlink="http://www.w3.org/1999/xlink" x="0px" y="0px"
	 viewBox="0 0 80 80" style="enable-background:new 0 0 80 80;" xml:space="preserve">
<style type="text/css">
	.st0{fill:#E89980;}
	.st1{fill:#FFFFFF;}
</style>
<g>
	<circle class="st0" cx="40" cy="40" r="36"/>
	<path class="st1" d="M62.5,35.9l0-0.4c0-1.5-0.4-2.2-1.6-2.2h-9c0-1-0.1-2.1-1.1-3.1l-4.4-4.6c-0.5-0.6-0.7-0.6-1.1-0.8
		c-0.4-0.2-2.3-1-2.8-1.2c-0.5-0.2-0.8-0.2-1.1-0.2v-1.3c0.3-0.5,0.7-0.5,0.7-2.3c0-2-1.3-3.5-3.5-3.5c-2.3,0-3.4,1.6-3.6,3.5h0.8
		v2.7c0,1,1,1.8,2.2,1.8v0.5l-2.5,4.1L33.1,31c-1,0.9-2.2,0.3-1.9-0.7l1.9-7.9c0.1-0.5-0.2-1-0.9-0.1l-4.6,7.1
		c-1.1,1.8-4,2.7-5.7,2.7h-2.3v3.7l0.2,0c1.3,0,2.6,0.3,3.8,0.7l-0.6,1c-1-0.4-2-0.6-3.1-0.6c-5,0-9,4-9,9c0,4.9,4,9,9,9
		c5,0,9-4,9-9c0-2.6-1.2-5-3-6.7l0.6-0.9c2.1,1.9,3.5,4.6,3.5,7.6c0,2.1,1,4.4,4.2,4.4c3.2,0,5.7,0,9.5-0.1h6.8
		c1.5,2.8,4.5,4.7,7.9,4.7c4.9,0,8.9-4,9-8.9h2C69.2,41.5,66.4,37.6,62.5,35.9z M19.8,51.5c-3.1,0-5.5-2.5-5.5-5.5
		c0-3.1,2.5-5.5,5.5-5.5c0.4,0,0.9,0.1,1.3,0.2l-1.2,2c0,0,0,0-0.1,0c-1.9,0-3.4,1.5-3.4,3.4c0,1.9,1.5,3.4,3.4,3.4
		c1.9,0,3.4-1.5,3.4-3.4c0-0.6-0.2-1.2-0.5-1.7l1.2-2c0.9,1,1.4,2.3,1.4,3.7C25.3,49,22.8,51.5,19.8,51.5z M38.5,36.9l-5.7-2.3l7-4
		c0.8,1.2,1.4,1.8,2.5,2.5L38.5,36.9z M49.4,44c-0.1,0.4-0.6,0.4-0.6,0v-5.8h3.7c0.4,0,0.5,0.3,0.2,0.5C51.1,40,49.9,41.9,49.4,44z
		 M58.2,51.5c-3.1,0-5.5-2.5-5.5-5.5c0-1.9,1-3.7,2.5-4.6l0.7,2.1c-0.7,0.6-1.1,1.5-1.1,2.5c0,1.9,1.5,3.4,3.4,3.4
		c1.9,0,3.4-1.5,3.4-3.4c0-1.7-1.2-3.1-2.9-3.4L58,40.4c0.1,0,0.2,0,0.2,0c3.1,0,5.5,2.5,5.5,5.5C63.8,49,61.3,51.5,58.2,51.5z"/>
</g>
</svg>
